<mxfile host="app.diagrams.net" agent="Mozilla/5.0 (Windows NT 10.0; Win64; x64) AppleWebKit/537.36 (KHTML, like Gecko) Chrome/127.0.0.0 Safari/537.36" version="24.7.7">
  <diagram name="Página-1" id="QbE4xqhF_vZynFNiB_tW">
    <mxGraphModel dx="1434" dy="1907" grid="1" gridSize="10" guides="1" tooltips="1" connect="1" arrows="1" fold="1" page="1" pageScale="1" pageWidth="827" pageHeight="1169" math="0" shadow="0">
      <root>
        <mxCell id="0" />
        <mxCell id="1" parent="0" />
        <mxCell id="y46xgZzBNic5iGOUbXfk-2" value="Google API&lt;div&gt;&amp;nbsp;GA4&lt;/div&gt;" style="strokeWidth=2;html=1;shape=mxgraph.flowchart.direct_data;whiteSpace=wrap;" vertex="1" parent="1">
          <mxGeometry x="20" y="-570" width="110" height="60" as="geometry" />
        </mxCell>
        <mxCell id="y46xgZzBNic5iGOUbXfk-4" value="AWS Lambda" style="label;whiteSpace=wrap;html=1;image=img/clipart/Gear_128x128.png;treeFolding=0;" vertex="1" parent="1">
          <mxGeometry x="240" y="-570" width="140" height="60" as="geometry" />
        </mxCell>
        <mxCell id="y46xgZzBNic5iGOUbXfk-6" value="" style="sketch=0;outlineConnect=0;fontColor=#232F3E;gradientColor=none;fillColor=#232F3D;strokeColor=none;dashed=0;verticalLabelPosition=bottom;verticalAlign=top;align=center;html=1;fontSize=12;fontStyle=0;aspect=fixed;pointerEvents=1;shape=mxgraph.aws4.documents;" vertex="1" parent="1">
          <mxGeometry x="559" y="-374" width="64" height="78" as="geometry" />
        </mxCell>
        <mxCell id="y46xgZzBNic5iGOUbXfk-7" value="Amazon S3" style="shape=datastore;whiteSpace=wrap;html=1;fillColor=none;strokeWidth=3;" vertex="1" parent="1">
          <mxGeometry x="718" y="-575" width="80" height="70" as="geometry" />
        </mxCell>
        <mxCell id="y46xgZzBNic5iGOUbXfk-8" value="" style="verticalLabelPosition=bottom;verticalAlign=top;html=1;strokeWidth=2;shape=mxgraph.arrows2.arrow;dy=0.6;dx=40;notch=0;rotation=-90;" vertex="1" parent="1">
          <mxGeometry x="512" y="-460" width="80" height="45" as="geometry" />
        </mxCell>
        <mxCell id="y46xgZzBNic5iGOUbXfk-9" value="" style="verticalLabelPosition=bottom;verticalAlign=top;html=1;strokeWidth=2;shape=mxgraph.arrows2.arrow;dy=0.6;dx=40;notch=0;" vertex="1" parent="1">
          <mxGeometry x="400" y="-562.5" width="90" height="45" as="geometry" />
        </mxCell>
        <mxCell id="y46xgZzBNic5iGOUbXfk-10" value="" style="aspect=fixed;sketch=0;html=1;dashed=0;whitespace=wrap;verticalLabelPosition=bottom;verticalAlign=top;fillColor=#f5f5f5;strokeColor=#666666;points=[[0.005,0.63,0],[0.1,0.2,0],[0.9,0.2,0],[0.5,0,0],[0.995,0.63,0],[0.72,0.99,0],[0.5,1,0],[0.28,0.99,0]];shape=mxgraph.kubernetes.icon2;prIcon=api;fontColor=#333333;" vertex="1" parent="1">
          <mxGeometry x="10" y="-608" width="50" height="48" as="geometry" />
        </mxCell>
        <mxCell id="y46xgZzBNic5iGOUbXfk-11" value="" style="shape=flexArrow;endArrow=classic;startArrow=classic;html=1;rounded=0;exitX=1;exitY=0.5;exitDx=0;exitDy=0;exitPerimeter=0;entryX=0;entryY=0.5;entryDx=0;entryDy=0;" edge="1" parent="1" source="y46xgZzBNic5iGOUbXfk-2" target="y46xgZzBNic5iGOUbXfk-4">
          <mxGeometry width="100" height="100" relative="1" as="geometry">
            <mxPoint x="150" y="-540.5" as="sourcePoint" />
            <mxPoint x="230" y="-540" as="targetPoint" />
            <Array as="points">
              <mxPoint x="170" y="-540" />
            </Array>
          </mxGeometry>
        </mxCell>
        <mxCell id="y46xgZzBNic5iGOUbXfk-12" value="Archivos históricos PARQUET o JSON." style="text;html=1;align=center;verticalAlign=middle;whiteSpace=wrap;rounded=0;" vertex="1" parent="1">
          <mxGeometry x="549.5" y="-320" width="239.5" height="70" as="geometry" />
        </mxCell>
        <mxCell id="y46xgZzBNic5iGOUbXfk-13" value="Amazon Redshift" style="sketch=0;outlineConnect=0;fontColor=#232F3E;gradientColor=none;strokeColor=#ffffff;fillColor=#232F3E;dashed=0;verticalLabelPosition=middle;verticalAlign=bottom;align=center;html=1;whiteSpace=wrap;fontSize=10;fontStyle=1;spacing=3;shape=mxgraph.aws4.productIcon;prIcon=mxgraph.aws4.redshift;" vertex="1" parent="1">
          <mxGeometry x="670" y="-790" width="80" height="110" as="geometry" />
        </mxCell>
        <mxCell id="y46xgZzBNic5iGOUbXfk-16" value="" style="shape=flexArrow;endArrow=classic;startArrow=classic;html=1;rounded=0;" edge="1" parent="1">
          <mxGeometry width="100" height="100" relative="1" as="geometry">
            <mxPoint x="757.5" y="-660" as="sourcePoint" />
            <mxPoint x="757.5" y="-580" as="targetPoint" />
            <Array as="points">
              <mxPoint x="757.5" y="-620.5" />
            </Array>
          </mxGeometry>
        </mxCell>
        <mxCell id="y46xgZzBNic5iGOUbXfk-17" value="PowerBI" style="image;aspect=fixed;html=1;points=[];align=center;fontSize=12;image=img/lib/azure2/analytics/Power_BI_Embedded.svg;" vertex="1" parent="1">
          <mxGeometry x="815" y="-1040" width="51" height="68" as="geometry" />
        </mxCell>
        <mxCell id="y46xgZzBNic5iGOUbXfk-25" value="" style="strokeWidth=2;html=1;shape=mxgraph.flowchart.start_1;whiteSpace=wrap;fillColor=none;" vertex="1" parent="1">
          <mxGeometry x="610" y="-810" width="288" height="150" as="geometry" />
        </mxCell>
        <mxCell id="y46xgZzBNic5iGOUbXfk-20" value="Amazon QuickSight" style="sketch=0;outlineConnect=0;fontColor=#232F3E;gradientColor=none;strokeColor=#ffffff;fillColor=#232F3E;dashed=0;verticalLabelPosition=middle;verticalAlign=bottom;align=center;html=1;whiteSpace=wrap;fontSize=10;fontStyle=1;spacing=3;shape=mxgraph.aws4.productIcon;prIcon=mxgraph.aws4.quicksight;" vertex="1" parent="1">
          <mxGeometry x="719" y="-1040" width="80" height="110" as="geometry" />
        </mxCell>
        <mxCell id="y46xgZzBNic5iGOUbXfk-21" value="Amazon&#xa;Aurora" style="sketch=0;outlineConnect=0;fontColor=#232F3E;gradientColor=none;strokeColor=#ffffff;fillColor=#232F3E;dashed=0;verticalLabelPosition=middle;verticalAlign=bottom;align=center;html=1;whiteSpace=wrap;fontSize=10;fontStyle=1;spacing=3;shape=mxgraph.aws4.productIcon;prIcon=mxgraph.aws4.aurora;" vertex="1" parent="1">
          <mxGeometry x="766" y="-790" width="80" height="110" as="geometry" />
        </mxCell>
        <mxCell id="y46xgZzBNic5iGOUbXfk-26" value="" style="verticalLabelPosition=bottom;verticalAlign=top;html=1;strokeWidth=2;shape=mxgraph.arrows2.arrow;dy=0.6;dx=40;notch=0;rotation=-90;" vertex="1" parent="1">
          <mxGeometry x="718" y="-880" width="80" height="45" as="geometry" />
        </mxCell>
        <mxCell id="y46xgZzBNic5iGOUbXfk-27" value="AWS Glue" style="sketch=0;outlineConnect=0;fontColor=#232F3E;gradientColor=none;strokeColor=#ffffff;fillColor=#232F3E;dashed=0;verticalLabelPosition=middle;verticalAlign=bottom;align=center;html=1;whiteSpace=wrap;fontSize=10;fontStyle=1;spacing=3;shape=mxgraph.aws4.productIcon;prIcon=mxgraph.aws4.glue;" vertex="1" parent="1">
          <mxGeometry x="510" y="-580" width="80" height="100" as="geometry" />
        </mxCell>
        <mxCell id="y46xgZzBNic5iGOUbXfk-29" value="RAW DATA" style="shape=curlyBracket;whiteSpace=wrap;html=1;rounded=1;flipH=1;labelPosition=right;verticalLabelPosition=middle;align=left;verticalAlign=middle;rotation=90;" vertex="1" parent="1">
          <mxGeometry x="195" y="-655" width="20" height="350" as="geometry" />
        </mxCell>
        <mxCell id="y46xgZzBNic5iGOUbXfk-30" value="PROCESSED DATA" style="shape=curlyBracket;whiteSpace=wrap;html=1;rounded=1;flipH=1;labelPosition=right;verticalLabelPosition=middle;align=left;verticalAlign=middle;rotation=-90;" vertex="1" parent="1">
          <mxGeometry x="540" y="-680" width="20" height="175" as="geometry" />
        </mxCell>
        <mxCell id="y46xgZzBNic5iGOUbXfk-35" value="&lt;p style=&quot;line-height: 0%;&quot;&gt;&lt;br&gt;&lt;/p&gt;" style="strokeWidth=2;html=1;shape=mxgraph.flowchart.start_1;whiteSpace=wrap;fillColor=none;" vertex="1" parent="1">
          <mxGeometry x="579" y="-1070" width="358" height="150" as="geometry" />
        </mxCell>
        <mxCell id="y46xgZzBNic5iGOUbXfk-32" value="" style="sketch=0;outlineConnect=0;fontColor=#232F3E;gradientColor=none;strokeColor=#232F3E;fillColor=none;dashed=0;verticalLabelPosition=bottom;verticalAlign=top;align=center;html=1;fontSize=12;fontStyle=0;aspect=fixed;shape=mxgraph.aws4.resourceIcon;resIcon=mxgraph.aws4.bucket_with_objects;" vertex="1" parent="1">
          <mxGeometry x="798" y="-565" width="60" height="60" as="geometry" />
        </mxCell>
        <mxCell id="y46xgZzBNic5iGOUbXfk-36" value="&lt;p style=&quot;line-height: 240%;&quot;&gt;SQL Clients&lt;/p&gt;" style="image;aspect=fixed;perimeter=ellipsePerimeter;html=1;align=center;shadow=0;dashed=0;spacingTop=3;image=img/lib/active_directory/sql_server.svg;sketch=0;strokeColor=#ffffff;verticalAlign=bottom;spacing=3;fontFamily=Helvetica;fontSize=10;fontColor=#232F3E;fontStyle=1;fillColor=#232F3E;gradientColor=none;" vertex="1" parent="1">
          <mxGeometry x="649" y="-1040" width="38.5" height="50" as="geometry" />
        </mxCell>
        <mxCell id="y46xgZzBNic5iGOUbXfk-37" value="ML Tools" style="sketch=0;points=[[0,0,0],[0.25,0,0],[0.5,0,0],[0.75,0,0],[1,0,0],[0,1,0],[0.25,1,0],[0.5,1,0],[0.75,1,0],[1,1,0],[0,0.25,0],[0,0.5,0],[0,0.75,0],[1,0.25,0],[1,0.5,0],[1,0.75,0]];outlineConnect=0;fontColor=#232F3E;fillColor=#232F3E;strokeColor=#ffffff;dashed=0;verticalLabelPosition=bottom;verticalAlign=top;align=center;html=1;fontSize=10;fontStyle=1;aspect=fixed;shape=mxgraph.aws4.resourceIcon;resIcon=mxgraph.aws4.machine_learning;spacing=3;fontFamily=Helvetica;gradientColor=none;labelPosition=center;" vertex="1" parent="1">
          <mxGeometry x="1030" y="-790" width="78" height="78" as="geometry" />
        </mxCell>
        <mxCell id="y46xgZzBNic5iGOUbXfk-38" value="" style="verticalLabelPosition=bottom;verticalAlign=top;html=1;strokeWidth=2;shape=mxgraph.arrows2.arrow;dy=0.6;dx=40;notch=0;" vertex="1" parent="1">
          <mxGeometry x="610" y="-562.5" width="90" height="45" as="geometry" />
        </mxCell>
        <mxCell id="y46xgZzBNic5iGOUbXfk-39" value="" style="verticalLabelPosition=bottom;verticalAlign=top;html=1;strokeWidth=2;shape=mxgraph.arrows2.arrow;dy=0.6;dx=40;notch=0;" vertex="1" parent="1">
          <mxGeometry x="910" y="-774" width="90" height="45" as="geometry" />
        </mxCell>
        <mxCell id="y46xgZzBNic5iGOUbXfk-40" value="&lt;font style=&quot;font-size: 12px;&quot;&gt;BI Tools&lt;/font&gt;" style="text;html=1;align=center;verticalAlign=middle;whiteSpace=wrap;rounded=0;fontFamily=Helvetica;fontSize=10;fontColor=#232F3E;fontStyle=1;" vertex="1" parent="1">
          <mxGeometry x="729" y="-1110" width="60" height="30" as="geometry" />
        </mxCell>
        <mxCell id="y46xgZzBNic5iGOUbXfk-48" value="" style="shape=waypoint;sketch=0;size=6;pointerEvents=1;points=[];fillColor=#01A88D;resizable=0;rotatable=0;perimeter=centerPerimeter;snapToPoint=1;verticalAlign=top;strokeColor=#ffffff;fontColor=#232F3E;dashed=0;fontStyle=0;spacing=3;" vertex="1" parent="1">
          <mxGeometry x="1059" y="-919" width="20" height="20" as="geometry" />
        </mxCell>
        <mxCell id="y46xgZzBNic5iGOUbXfk-50" value="" style="html=1;shadow=0;dashed=0;align=center;verticalAlign=top;shape=mxgraph.arrows2.bendDoubleArrow;dy=7.5;dx=40;arrowHead=39;rounded=0;sketch=0;strokeColor=default;spacing=3;fontFamily=Helvetica;fontSize=12;fontColor=default;fontStyle=1;fillColor=default;gradientColor=none;rotation=90;strokeWidth=2;" vertex="1" parent="1">
          <mxGeometry x="898.75" y="-983.75" width="227.5" height="145" as="geometry" />
        </mxCell>
        <mxCell id="y46xgZzBNic5iGOUbXfk-51" value="Datalake" style="sketch=0;outlineConnect=0;fontColor=#232F3E;gradientColor=none;fillColor=#8C4FFF;strokeColor=none;dashed=0;verticalLabelPosition=bottom;verticalAlign=top;align=center;html=1;fontSize=12;fontStyle=0;aspect=fixed;pointerEvents=1;shape=mxgraph.aws4.data_lake_resource_icon;spacing=3;fontFamily=Helvetica;" vertex="1" parent="1">
          <mxGeometry x="471.5" y="-384" width="78" height="78" as="geometry" />
        </mxCell>
        <mxCell id="y46xgZzBNic5iGOUbXfk-52" value="RAW DATA" style="shape=curlyBracket;whiteSpace=wrap;html=1;rounded=1;flipH=1;labelPosition=right;verticalLabelPosition=middle;align=left;verticalAlign=middle;rotation=90;" vertex="1" parent="1">
          <mxGeometry x="534.5" y="-340" width="20" height="163" as="geometry" />
        </mxCell>
      </root>
    </mxGraphModel>
  </diagram>
</mxfile>
